<mxfile host="app.diagrams.net" modified="2023-03-09T13:01:48.053Z" agent="5.0 (Windows NT 10.0; WOW64) AppleWebKit/537.36 (KHTML, like Gecko) Chrome/102.0.0.0 Safari/537.36" etag="BEx8bVKq8MOVMFTQMDzC" version="21.0.2" type="github">
  <diagram name="第 1 页" id="HUAILHdLmpAMpigPz8tI">
    <mxGraphModel dx="1036" dy="535" grid="1" gridSize="10" guides="1" tooltips="1" connect="1" arrows="1" fold="1" page="1" pageScale="1" pageWidth="827" pageHeight="1169" math="0" shadow="0">
      <root>
        <mxCell id="0" />
        <mxCell id="1" parent="0" />
        <mxCell id="Knwaekd2AUW3Hb_BX-9o-1" value="" style="ellipse;whiteSpace=wrap;html=1;aspect=fixed;fillColor=#1A1A1A;" vertex="1" parent="1">
          <mxGeometry x="150" y="140" width="80" height="80" as="geometry" />
        </mxCell>
        <mxCell id="Knwaekd2AUW3Hb_BX-9o-2" value="" style="ellipse;whiteSpace=wrap;html=1;aspect=fixed;fillColor=#1A1A1A;" vertex="1" parent="1">
          <mxGeometry x="400" y="140" width="80" height="80" as="geometry" />
        </mxCell>
        <mxCell id="Knwaekd2AUW3Hb_BX-9o-4" value="" style="endArrow=none;html=1;rounded=0;exitX=1;exitY=0.5;exitDx=0;exitDy=0;entryX=0;entryY=0.5;entryDx=0;entryDy=0;" edge="1" parent="1" source="Knwaekd2AUW3Hb_BX-9o-1" target="Knwaekd2AUW3Hb_BX-9o-2">
          <mxGeometry width="50" height="50" relative="1" as="geometry">
            <mxPoint x="300" y="210" as="sourcePoint" />
            <mxPoint x="350" y="200" as="targetPoint" />
            <Array as="points">
              <mxPoint x="240" y="180" />
              <mxPoint x="260" y="200" />
              <mxPoint x="270" y="180" />
              <mxPoint x="290" y="200" />
              <mxPoint x="300" y="180" />
              <mxPoint x="320" y="200" />
              <mxPoint x="330" y="180" />
              <mxPoint x="350" y="200" />
              <mxPoint x="360" y="180" />
              <mxPoint x="380" y="200" />
              <mxPoint x="390" y="180" />
            </Array>
          </mxGeometry>
        </mxCell>
        <mxCell id="Knwaekd2AUW3Hb_BX-9o-11" value="" style="group;rotation=105;" vertex="1" connectable="0" parent="1">
          <mxGeometry x="20" y="290" width="230" height="80" as="geometry" />
        </mxCell>
        <mxCell id="Knwaekd2AUW3Hb_BX-9o-12" value="" style="ellipse;whiteSpace=wrap;html=1;aspect=fixed;fillColor=#1A1A1A;rotation=105;" vertex="1" parent="Knwaekd2AUW3Hb_BX-9o-11">
          <mxGeometry x="50" y="81" width="76.66666666666667" height="76.66666666666667" as="geometry" />
        </mxCell>
        <mxCell id="Knwaekd2AUW3Hb_BX-9o-13" value="" style="endArrow=none;html=1;rounded=0;entryX=0;entryY=0.5;entryDx=0;entryDy=0;" edge="1" parent="Knwaekd2AUW3Hb_BX-9o-11" target="Knwaekd2AUW3Hb_BX-9o-12">
          <mxGeometry width="50" height="50" relative="1" as="geometry">
            <mxPoint x="140" y="-72" as="sourcePoint" />
            <mxPoint x="93" y="29" as="targetPoint" />
            <Array as="points">
              <mxPoint x="143" y="-82" />
              <mxPoint x="140" y="-72" />
              <mxPoint x="116" y="-58" />
              <mxPoint x="132" y="-43" />
              <mxPoint x="109" y="-29" />
              <mxPoint x="125" y="-14" />
              <mxPoint x="101" />
              <mxPoint x="117" y="15" />
              <mxPoint x="93" y="29" />
              <mxPoint x="109" y="44" />
              <mxPoint x="85" y="58" />
              <mxPoint x="101" y="73" />
            </Array>
          </mxGeometry>
        </mxCell>
        <mxCell id="Knwaekd2AUW3Hb_BX-9o-14" value="" style="group;rotation=15;" vertex="1" connectable="0" parent="1">
          <mxGeometry x="480" y="190" width="240" height="80" as="geometry" />
        </mxCell>
        <mxCell id="Knwaekd2AUW3Hb_BX-9o-15" value="" style="ellipse;whiteSpace=wrap;html=1;aspect=fixed;fillColor=#1A1A1A;rotation=15;" vertex="1" parent="Knwaekd2AUW3Hb_BX-9o-14">
          <mxGeometry x="157" y="21" width="80" height="80" as="geometry" />
        </mxCell>
        <mxCell id="Knwaekd2AUW3Hb_BX-9o-16" value="" style="endArrow=none;html=1;rounded=0;entryX=0;entryY=0.5;entryDx=0;entryDy=0;" edge="1" parent="Knwaekd2AUW3Hb_BX-9o-14" target="Knwaekd2AUW3Hb_BX-9o-15">
          <mxGeometry width="50" height="50" relative="1" as="geometry">
            <mxPoint x="-6" y="6" as="sourcePoint" />
            <mxPoint x="105" y="57" as="targetPoint" />
            <Array as="points">
              <mxPoint x="4" y="9" />
              <mxPoint x="18" y="33" />
              <mxPoint x="33" y="17" />
              <mxPoint x="47" y="41" />
              <mxPoint x="63" y="25" />
              <mxPoint x="76" y="49" />
              <mxPoint x="91" y="32" />
              <mxPoint x="105" y="57" />
              <mxPoint x="120" y="40" />
              <mxPoint x="134" y="64" />
              <mxPoint x="149" y="48" />
            </Array>
          </mxGeometry>
        </mxCell>
        <mxCell id="Knwaekd2AUW3Hb_BX-9o-17" value="" style="group;rotation=55;" vertex="1" connectable="0" parent="1">
          <mxGeometry x="660" y="340" width="240" height="80" as="geometry" />
        </mxCell>
        <mxCell id="Knwaekd2AUW3Hb_BX-9o-18" value="" style="ellipse;whiteSpace=wrap;html=1;aspect=fixed;fillColor=#1A1A1A;rotation=55;" vertex="1" parent="Knwaekd2AUW3Hb_BX-9o-17">
          <mxGeometry x="126" y="65" width="80" height="80" as="geometry" />
        </mxCell>
        <mxCell id="Knwaekd2AUW3Hb_BX-9o-19" value="" style="endArrow=none;html=1;rounded=0;entryX=0;entryY=0.5;entryDx=0;entryDy=0;" edge="1" parent="Knwaekd2AUW3Hb_BX-9o-17" target="Knwaekd2AUW3Hb_BX-9o-18">
          <mxGeometry width="50" height="50" relative="1" as="geometry">
            <mxPoint x="45" y="-67" as="sourcePoint" />
            <mxPoint x="98" y="43" as="targetPoint" />
            <Array as="points">
              <mxPoint x="51" y="-58" />
              <mxPoint x="47" y="-31" />
              <mxPoint x="69" y="-34" />
              <mxPoint x="64" y="-6" />
              <mxPoint x="86" y="-9" />
              <mxPoint x="80" y="19" />
              <mxPoint x="103" y="15" />
              <mxPoint x="98" y="43" />
              <mxPoint x="120" y="40" />
              <mxPoint x="115" y="68" />
              <mxPoint x="137" y="65" />
            </Array>
          </mxGeometry>
        </mxCell>
        <mxCell id="Knwaekd2AUW3Hb_BX-9o-22" value="" style="shape=link;html=1;rounded=0;" edge="1" parent="1">
          <mxGeometry width="100" relative="1" as="geometry">
            <mxPoint x="140" y="490" as="sourcePoint" />
            <mxPoint x="240" y="240" as="targetPoint" />
          </mxGeometry>
        </mxCell>
        <mxCell id="Knwaekd2AUW3Hb_BX-9o-23" value="" style="shape=link;html=1;rounded=0;" edge="1" parent="1">
          <mxGeometry width="100" relative="1" as="geometry">
            <mxPoint x="20" y="430" as="sourcePoint" />
            <mxPoint x="140" y="110" as="targetPoint" />
          </mxGeometry>
        </mxCell>
        <mxCell id="Knwaekd2AUW3Hb_BX-9o-24" value="" style="shape=link;html=1;rounded=0;" edge="1" parent="1">
          <mxGeometry width="100" relative="1" as="geometry">
            <mxPoint x="140" y="110" as="sourcePoint" />
            <mxPoint x="500" y="110" as="targetPoint" />
          </mxGeometry>
        </mxCell>
        <mxCell id="Knwaekd2AUW3Hb_BX-9o-25" value="" style="shape=link;html=1;rounded=0;" edge="1" parent="1">
          <mxGeometry width="100" relative="1" as="geometry">
            <mxPoint x="770" y="210" as="sourcePoint" />
            <mxPoint x="500" y="110" as="targetPoint" />
          </mxGeometry>
        </mxCell>
        <mxCell id="Knwaekd2AUW3Hb_BX-9o-26" value="" style="shape=link;html=1;rounded=0;" edge="1" parent="1">
          <mxGeometry width="100" relative="1" as="geometry">
            <mxPoint x="920" y="440" as="sourcePoint" />
            <mxPoint x="770" y="210" as="targetPoint" />
          </mxGeometry>
        </mxCell>
        <mxCell id="Knwaekd2AUW3Hb_BX-9o-27" value="" style="shape=link;html=1;rounded=0;" edge="1" parent="1">
          <mxGeometry width="100" relative="1" as="geometry">
            <mxPoint x="450" y="250" as="sourcePoint" />
            <mxPoint x="240" y="240" as="targetPoint" />
          </mxGeometry>
        </mxCell>
        <mxCell id="Knwaekd2AUW3Hb_BX-9o-28" value="" style="shape=link;html=1;rounded=0;" edge="1" parent="1">
          <mxGeometry width="100" relative="1" as="geometry">
            <mxPoint x="650" y="320" as="sourcePoint" />
            <mxPoint x="450" y="250" as="targetPoint" />
          </mxGeometry>
        </mxCell>
        <mxCell id="Knwaekd2AUW3Hb_BX-9o-29" value="" style="shape=link;html=1;rounded=0;" edge="1" parent="1">
          <mxGeometry width="100" relative="1" as="geometry">
            <mxPoint x="780" y="500" as="sourcePoint" />
            <mxPoint x="650" y="320" as="targetPoint" />
          </mxGeometry>
        </mxCell>
      </root>
    </mxGraphModel>
  </diagram>
</mxfile>
